<?xml version="1.0" encoding="utf-8"?>
<!-- Generator: Adobe Illustrator 26.2.1, SVG Export Plug-In . SVG Version: 6.00 Build 0)  -->
<svg version="1.1" id="Layer_1" xmlns="http://www.w3.org/2000/svg" xmlns:xlink="http://www.w3.org/1999/xlink" x="0px" y="0px"
	 viewBox="0 0 3000 3500" style="enable-background:new 0 0 3000 3500;" xml:space="preserve">
<style type="text/css">
	.st0{fill:#FFFFFF;}
</style>
<path class="st0" d="M1544.83,1761.87l-0.98-1.69l-5.13-8.82l-2.02-3.47l-5.13-8.82l-2.02-3.47l-4.09-7.03l-1.04-1.79l-0.99-1.7
	h-16.35l-0.99,1.7l-1.04,1.79l-4.09,7.03l-4.09-7.03l-1.04-1.79l-0.99-1.7h-16.35l-0.99,1.7l-1.04,1.78l-4.1,7.04l-2.02,3.46
	l-5.13,8.82l-2.02,3.47l-5.13,8.82l-0.98,1.69l-1.04,1.78l0.99,1.71l1.02,1.76l4.15,7.13l0.98,1.69l1.05,1.8h16.24l1.05-1.8
	l0.98-1.69l4.15-7.13l4.15,7.13l0.98,1.69l1.05,1.8h16.23l1.05-1.8l0.98-1.69l4.15-7.14l4.15,7.14l0.98,1.68l1.05,1.8h16.23
	l1.05-1.8l0.98-1.68l4.15-7.14l1.02-1.75l1-1.71L1544.83,1761.87z M1521.42,1728.57l0.98,1.68l5.13,8.82l2.02,3.47l5.13,8.82
	l2.02,3.47l4.1,7.05h-10.26l-0.98-1.7l-5.13-8.82l-2.02-3.47l-5.13-8.82l-2.02-3.47l-4.09-7.03H1521.42z M1492.82,1728.57l0.98,1.68
	l5.13,8.82l2.02,3.47l5.13,8.82l2.02,3.47l4.1,7.04h-10.27l-0.98-1.69l-5.13-8.82l-2.02-3.47l-5.13-8.82l-2.02-3.47l-4.09-7.03
	H1492.82z M1479.5,1772.46l-1.04,1.78h-10.26l4.15-7.13l1.02-1.75l1-1.71l1.03-1.77l4.1-7.04l4.1,7.04l1.03,1.77l-1,1.71
	L1479.5,1772.46z M1489.67,1765.35l-1-1.71l-1.03-1.77l-0.99-1.69l-5.13-8.82l-2.02-3.47l-2.02,3.47l-5.13,8.82l-0.98,1.69
	l-1.03,1.77l-1,1.71l-4.14,7.11l-4.14-7.11l-1-1.71l1.04-1.78l4.1-7.04l2.02-3.47l5.13-8.82l2.02-3.47l5.13-8.82l5.13,8.82
	l2.02,3.46l5.13,8.82l2.01,3.47l4.1,7.04l1.04,1.77l-1,1.71l-4.14,7.11L1489.67,1765.35z M1508.1,1772.46l-1.04,1.78h-10.26
	l4.15-7.13l1.02-1.75h10.26L1508.1,1772.46z M1518.26,1765.35l-1-1.71l-1.03-1.77l-0.99-1.69l-5.13-8.82l-2.02-3.47l-5.13-8.82
	l5.13-8.82l5.13,8.82l2.02,3.47l5.13,8.82l2.02,3.46l4.1,7.05l1.03,1.77l-1,1.71l-4.13,7.11L1518.26,1765.35z M1536.69,1772.46
	l-1.04,1.78h-10.26l4.15-7.14l1.02-1.75h10.26L1536.69,1772.46z"/>
</svg>
